<?xml version="1.0" ?><svg data-name="Layer 1" id="Layer_1" viewBox="0 0 512 512" xmlns="http://www.w3.org/2000/svg"><title/><path d="M123.85,393.27a27.75,27.75,0,0,0-2.53-1.87,42.48,42.48,0,1,0-45.57,0,27.84,27.84,0,0,0-2.54,1.87c-9.61,8-21.82,27.78-25.46,77a4.34,4.34,0,0,0,4,4.66l.33,0a4.35,4.35,0,0,0,4.33-4c5-67.48,25.63-73.9,30-74.6a42.14,42.14,0,0,0,24.37,0c4.5.66,24.9,7.34,29.88,74.62a4.36,4.36,0,0,0,4.33,4l.33,0a4.36,4.36,0,0,0,4-4.66C145.67,421.05,133.46,401.23,123.85,393.27Zm-34-5a4.4,4.4,0,0,0-1.83-.68c-.09,0-.27,0-.54,0a33.77,33.77,0,1,1,22,0l-.55,0a4.22,4.22,0,0,0-1.8.68,34,34,0,0,1-8.67,1.17A33.3,33.3,0,0,1,89.89,388.22Z" style="fill:#231f20"/><path d="M405.33,393.27a29.29,29.29,0,0,0-2.54-1.87,42.47,42.47,0,1,0-45.57,0,27.75,27.75,0,0,0-2.53,1.87c-9.61,8-21.82,27.78-25.47,77a4.34,4.34,0,0,0,4,4.66l.32,0a4.36,4.36,0,0,0,4.34-4c5-67.51,25.6-73.91,30-74.6a42.14,42.14,0,0,0,24.37,0c4.49.66,24.9,7.38,29.88,74.62a4.36,4.36,0,0,0,4.34,4l.32,0a4.34,4.34,0,0,0,4-4.66C427.15,421.05,414.93,401.23,405.33,393.27Zm-34-5a4.35,4.35,0,0,0-1.82-.68l-.55,0a33.77,33.77,0,1,1,22,0l-.55,0a4.23,4.23,0,0,0-1.79.68,34,34,0,0,1-8.67,1.17A33.37,33.37,0,0,1,371.36,388.22Z" style="fill:#231f20"/><path d="M264.59,393.27a27.84,27.84,0,0,0-2.54-1.87,42.47,42.47,0,1,0-45.57,0,27.75,27.75,0,0,0-2.53,1.87c-9.61,8-21.82,27.78-25.47,77a4.36,4.36,0,0,0,4,4.66l.33,0a4.35,4.35,0,0,0,4.33-4c5-67.54,25.57-73.91,30-74.61a42,42,0,0,0,12.15,1.8,42.55,42.55,0,0,0,12.22-1.81c4.48.67,24.91,7.4,29.88,74.62a4.36,4.36,0,0,0,4.34,4l.32,0a4.34,4.34,0,0,0,4-4.66C286.41,421.05,274.2,401.23,264.59,393.27Zm-34-5a4.45,4.45,0,0,0-1.83-.68l-.55,0a33.77,33.77,0,1,1,22,0l-.55,0a4.23,4.23,0,0,0-1.79.68,34,34,0,0,1-8.67,1.17A33.3,33.3,0,0,1,230.63,388.22Z" style="fill:#231f20"/><path d="M481.6,37.07H30.4a4.36,4.36,0,0,0-4.35,4.36V260.56a4.36,4.36,0,0,0,4.35,4.36H321.47a231.18,231.18,0,0,0-1.53,25.95,4.35,4.35,0,0,0,8.7,0c0-29.81,6.89-58.92,11.55-69.21a3.92,3.92,0,0,0,.15-.66,4.27,4.27,0,0,0,.2-.84,4.57,4.57,0,0,0-.07-.83,4.29,4.29,0,0,0-.14-.81,3.94,3.94,0,0,0-.37-.74,4.53,4.53,0,0,0-.43-.7,4,4,0,0,0-.66-.57,4.23,4.23,0,0,0-.51-.44l-61.19-34.36a9.35,9.35,0,1,1,9.15-16.3L351.49,202a4.36,4.36,0,0,0,1.6.52A42.16,42.16,0,0,0,394.61,199l.08.06c14.69,12.17,23.65,38.84,26.64,79.27a7.64,7.64,0,0,1-7.06,8.17l-.56,0a7.66,7.66,0,0,1-7.6-7.07c-1.11-15-3.11-28.07-5.93-38.81a4.35,4.35,0,0,0-8.42,2.21c2.69,10.23,4.6,22.76,5.67,37.24a16.4,16.4,0,0,0,16.28,15.13c.41,0,.82,0,1.22-.05A16.34,16.34,0,0,0,430,277.67c-.33-4.41-.74-8.64-1.22-12.75H481.6a4.36,4.36,0,0,0,4.35-4.36V41.43A4.36,4.36,0,0,0,481.6,37.07ZM336.93,163.93a33.77,33.77,0,1,1,33.77,33.76A33.8,33.8,0,0,1,336.93,163.93Zm140.32,92.28H427.67c-4.48-30.29-13.33-51.39-26.38-62.9A42.46,42.46,0,1,0,331.84,181l-41.26-23.17A18,18,0,0,0,272.9,189.3l57.87,32.49c-2.83,7.65-6,19.92-8.16,34.42H34.75V45.78h442.5Z" style="fill:#231f20"/><path d="M105.28,187.86a4.35,4.35,0,0,0,3.08-1.27l60.83-60.83,28.6,28.6a4.35,4.35,0,0,0,6.15,0l72.78-72.78v28.24a4.35,4.35,0,0,0,8.7,0V71.08a4.38,4.38,0,0,0-4.35-4.36H242.32a4.36,4.36,0,0,0,0,8.71h28.25l-69.7,69.7-28.61-28.6a4.35,4.35,0,0,0-6.15,0L102.2,180.44a4.35,4.35,0,0,0,3.08,7.42Z" style="fill:#231f20"/></svg>