<?xml version="1.0" ?><svg data-name="Layer 1" id="Layer_1" viewBox="0 0 512 512" xmlns="http://www.w3.org/2000/svg"><path d="M97.07,244.82H438.66a5,5,0,0,0,5-5V47.11a5,5,0,0,0-5-5H97.07a5,5,0,0,0-5,5V239.82A5,5,0,0,0,97.07,244.82ZM371.43,52.11c5,10.79,23.59,44.59,62.23,47.31v88.09C395,190.24,376.41,224,371.43,234.82H164.3c-5-10.78-23.59-44.58-62.23-47.31V99.42c38.64-2.72,57.25-36.52,62.23-47.31ZM102.07,197.54c29.4,2.39,45.06,25.53,51.17,37.28H102.07Zm280.48,37.28c6.21-11.71,22-34.85,51.11-37.27v37.27ZM433.66,89.4c-29.4-2.4-45.06-25.53-51.17-37.29h51.17ZM153.18,52.11C147,63.83,131.14,87,102.07,89.39V52.11Z" style="fill:#231f20"/><path d="M478.3,333.57a35.08,35.08,0,0,0-39.74-18.82L336.9,338.63a27.72,27.72,0,0,0-3.32-1.9L256.4,299.34a149.06,149.06,0,0,0-99.24-10.83l-46.92,11.17H75v-44a5,5,0,0,0-5-5H36.18a5,5,0,0,0,0,10H65V459.89H36.18a5,5,0,0,0,0,10H70a5,5,0,0,0,5-5V401h60L222.11,435a145.38,145.38,0,0,0,116.76-5L467,366.77A24.88,24.88,0,0,0,478.3,333.57ZM462.55,357.8,334.44,420.94a135.26,135.26,0,0,1-108.7,4.7l-88-34.26A5.1,5.1,0,0,0,136,391H75V309.68h35.78a5,5,0,0,0,1.16-.13l47.5-11.31A139,139,0,0,1,252,308.34l77.18,37.39a17.92,17.92,0,0,1,9.47,20.78,16.82,16.82,0,0,1-18.3,12.22L205.46,363.94a5,5,0,1,0-1.27,9.92l114.92,14.79a26,26,0,0,0,3.39.22,26.87,26.87,0,0,0,25.84-19.74A27.94,27.94,0,0,0,345,347l95.82-22.5A25.12,25.12,0,0,1,469.32,338,14.86,14.86,0,0,1,462.55,357.8Z" style="fill:#231f20"/><path d="M268.42,189.11H268c-17.49-.47-20.67-11.12-20.78-11.51a5,5,0,1,0-9.7,2.41c.17.7,4.24,16.1,25.35,18.73V212a5,5,0,1,0,10,0V198.73c11.95-2,22.62-11.69,25-23.59,1.42-7.11,1.52-24.88-28.21-36.34-15.93-6.14-24-15.26-22-25,1.72-8.59,10.83-15.93,19.65-15.93h.42c17.37.47,20.63,11,20.79,11.57a5,5,0,0,0,9.69-2.46c-.17-.7-4.24-16.09-25.34-18.73V75a5,5,0,0,0-10,0V88.2c-12.09,2-22.63,11.67-25,23.59-1.42,7.12-1.52,24.89,28.21,36.35,15.93,6.14,23.95,15.26,22,25C286.35,181.77,277.24,189.11,268.42,189.11Z" style="fill:#231f20"/></svg>