<?xml version="1.0" ?><svg data-name="Layer 1" id="Layer_1" viewBox="0 0 512 512" xmlns="http://www.w3.org/2000/svg"><path d="M378.71,102.31H133.29a31,31,0,0,0-31,31V378.72a31,31,0,0,0,31,31H378.71a31,31,0,0,0,31-31V133.28A31,31,0,0,0,378.71,102.31Zm20,276.41a20,20,0,0,1-20,20H133.29a20,20,0,0,1-20-20V133.28a20,20,0,0,1,20-20H378.71a20,20,0,0,1,20,20Z" style="fill:#231f20"/><path d="M197.46,133.22H157.12a27.48,27.48,0,0,0-27.46,27.45V351.33a27.48,27.48,0,0,0,27.46,27.45h40.34a27.47,27.47,0,0,0,27.44-27.45V160.67A27.47,27.47,0,0,0,197.46,133.22ZM213.9,351.33a16.46,16.46,0,0,1-16.44,16.45H157.12a16.47,16.47,0,0,1-16.45-16.45V160.67a16.47,16.47,0,0,1,16.45-16.45h40.34a16.46,16.46,0,0,1,16.44,16.45Z" style="fill:#231f20"/><path d="M375.87,149.09H251.15a5.5,5.5,0,0,0-5.5,5.5V187a5.5,5.5,0,0,0,5.5,5.5H375.87a5.5,5.5,0,0,0,5.5-5.5V154.59A5.5,5.5,0,0,0,375.87,149.09Zm-5.5,32.4H256.66V160.1H370.37Z" style="fill:#231f20"/><path d="M266.06,215.83a20.41,20.41,0,1,0,20.4,20.41A20.44,20.44,0,0,0,266.06,215.83Zm0,29.81a9.4,9.4,0,1,1,9.4-9.4A9.41,9.41,0,0,1,266.06,245.64Z" style="fill:#231f20"/><path d="M313.52,215.83a20.41,20.41,0,1,0,20.4,20.41A20.44,20.44,0,0,0,313.52,215.83Zm0,29.81a9.4,9.4,0,1,1,9.4-9.4A9.42,9.42,0,0,1,313.52,245.64Z" style="fill:#231f20"/><path d="M361,215.83a20.41,20.41,0,1,0,20.41,20.41A20.43,20.43,0,0,0,361,215.83Zm0,29.81a9.4,9.4,0,1,1,9.41-9.4A9.42,9.42,0,0,1,361,245.64Z" style="fill:#231f20"/><path d="M266.06,269a20.4,20.4,0,1,0,20.4,20.4A20.43,20.43,0,0,0,266.06,269Zm0,29.8a9.4,9.4,0,1,1,9.4-9.4A9.41,9.41,0,0,1,266.06,298.77Z" style="fill:#231f20"/><path d="M313.52,269a20.4,20.4,0,1,0,20.4,20.4A20.43,20.43,0,0,0,313.52,269Zm0,29.8a9.4,9.4,0,1,1,9.4-9.4A9.42,9.42,0,0,1,313.52,298.77Z" style="fill:#231f20"/><path d="M361,269a20.4,20.4,0,1,0,20.41,20.4A20.42,20.42,0,0,0,361,269Zm0,29.8a9.4,9.4,0,1,1,9.41-9.4A9.42,9.42,0,0,1,361,298.77Z" style="fill:#231f20"/><path d="M266.06,322.1a20.41,20.41,0,1,0,20.4,20.4A20.43,20.43,0,0,0,266.06,322.1Zm0,29.8a9.4,9.4,0,1,1,9.4-9.4A9.41,9.41,0,0,1,266.06,351.9Z" style="fill:#231f20"/><path d="M313.52,322.1a20.41,20.41,0,1,0,20.4,20.4A20.43,20.43,0,0,0,313.52,322.1Zm0,29.8a9.4,9.4,0,1,1,9.4-9.4A9.42,9.42,0,0,1,313.52,351.9Z" style="fill:#231f20"/><path d="M361,322.1a20.41,20.41,0,1,0,20.41,20.4A20.42,20.42,0,0,0,361,322.1Zm0,29.8a9.4,9.4,0,1,1,9.41-9.4A9.41,9.41,0,0,1,361,351.9Z" style="fill:#231f20"/></svg>